# xmcd CD database file
#
# Track frame offsets:
#	180
#	23986
#	44313
#	65677
#	81113
#	116080
#	141830
#	164666
#	184695
#	209616
#	236063
#
# Disc length: 3429 seconds
#
# Revision: 0
# Processed by: cddbd v1.5PL3 Copyright (c) Steve Scherf et al.
# Submitted via: CDex 1.51
#
DISCID=a30d630b
DTITLE=Stephen Jacob - Comfort and Joy
DYEAR=1900
DGENRE=New Age
TTITLE0=Lo, how a rose e'er blooming
TTITLE1=O come o come Emmanuel
TTITLE2=What child is this?/We three kings
TTITLE3=A feast of lights: Fredrick Silver
TTITLE4=Canon: JohannPachabel 
TTITLE5=O little Town of Bethlehem
TTITLE6=Joy to the World
TTITLE7=God Rest Ye Merry Gentlemen
TTITLE8=Angels We Have Heard on High
TTITLE9=Holy Night/Silent Night
TTITLE10=Mve Maria
EXTD=
EXTT0=
EXTT1=
EXTT2=
EXTT3=
EXTT4=
EXTT5=
EXTT6=
EXTT7=
EXTT8=
EXTT9=
EXTT10=
PLAYORDER=
